<mxfile host="app.diagrams.net" modified="2023-02-06T03:41:37.328Z" agent="5.0 (Windows NT 10.0; Win64; x64) AppleWebKit/537.36 (KHTML, like Gecko) Chrome/103.0.0.0 Safari/537.36" etag="WTIhBIyn4kTJXfE5A37B" version="20.8.16" type="github">
  <diagram name="第 1 页" id="NbdR2uI3RlcKnPxPw8P_">
    <mxGraphModel dx="1707" dy="494" grid="1" gridSize="10" guides="1" tooltips="1" connect="1" arrows="1" fold="1" page="1" pageScale="1" pageWidth="827" pageHeight="1169" math="0" shadow="0">
      <root>
        <mxCell id="0" />
        <mxCell id="1" parent="0" />
        <mxCell id="Jtp0BAPYZOAmez7oG2RA-22" value="" style="edgeStyle=orthogonalEdgeStyle;rounded=0;orthogonalLoop=1;jettySize=auto;html=1;" edge="1" parent="1" source="Jtp0BAPYZOAmez7oG2RA-23" target="Jtp0BAPYZOAmez7oG2RA-29">
          <mxGeometry relative="1" as="geometry">
            <Array as="points">
              <mxPoint x="170" y="150" />
              <mxPoint x="170" y="150" />
            </Array>
          </mxGeometry>
        </mxCell>
        <mxCell id="Jtp0BAPYZOAmez7oG2RA-23" value="外汇资金XMS前中台" style="rounded=1;whiteSpace=wrap;html=1;" vertex="1" parent="1">
          <mxGeometry x="140" y="50" width="120" height="60" as="geometry" />
        </mxCell>
        <mxCell id="Jtp0BAPYZOAmez7oG2RA-28" style="edgeStyle=orthogonalEdgeStyle;rounded=0;orthogonalLoop=1;jettySize=auto;html=1;exitX=0.5;exitY=1;exitDx=0;exitDy=0;entryX=0.5;entryY=0;entryDx=0;entryDy=0;" edge="1" parent="1" source="Jtp0BAPYZOAmez7oG2RA-29">
          <mxGeometry relative="1" as="geometry">
            <mxPoint x="200" y="332" as="targetPoint" />
          </mxGeometry>
        </mxCell>
        <mxCell id="Jtp0BAPYZOAmez7oG2RA-53" style="edgeStyle=orthogonalEdgeStyle;rounded=0;orthogonalLoop=1;jettySize=auto;html=1;exitX=0.5;exitY=1;exitDx=0;exitDy=0;" edge="1" parent="1" source="Jtp0BAPYZOAmez7oG2RA-29">
          <mxGeometry relative="1" as="geometry">
            <mxPoint x="90" y="332" as="targetPoint" />
          </mxGeometry>
        </mxCell>
        <mxCell id="Jtp0BAPYZOAmez7oG2RA-55" style="edgeStyle=orthogonalEdgeStyle;rounded=0;orthogonalLoop=1;jettySize=auto;html=1;exitX=0.5;exitY=1;exitDx=0;exitDy=0;entryX=0.5;entryY=0;entryDx=0;entryDy=0;" edge="1" parent="1" source="Jtp0BAPYZOAmez7oG2RA-29">
          <mxGeometry relative="1" as="geometry">
            <mxPoint x="320" y="332" as="targetPoint" />
          </mxGeometry>
        </mxCell>
        <mxCell id="Jtp0BAPYZOAmez7oG2RA-61" style="edgeStyle=orthogonalEdgeStyle;rounded=0;orthogonalLoop=1;jettySize=auto;html=1;exitX=0.5;exitY=1;exitDx=0;exitDy=0;entryX=0.5;entryY=0;entryDx=0;entryDy=0;" edge="1" parent="1" source="Jtp0BAPYZOAmez7oG2RA-29" target="Jtp0BAPYZOAmez7oG2RA-33">
          <mxGeometry relative="1" as="geometry" />
        </mxCell>
        <mxCell id="Jtp0BAPYZOAmez7oG2RA-65" style="edgeStyle=orthogonalEdgeStyle;rounded=0;orthogonalLoop=1;jettySize=auto;html=1;exitX=0.5;exitY=1;exitDx=0;exitDy=0;entryX=0.5;entryY=0;entryDx=0;entryDy=0;" edge="1" parent="1" source="Jtp0BAPYZOAmez7oG2RA-29" target="Jtp0BAPYZOAmez7oG2RA-64">
          <mxGeometry relative="1" as="geometry" />
        </mxCell>
        <mxCell id="Jtp0BAPYZOAmez7oG2RA-29" value="外汇资金管理系统FBS后台" style="whiteSpace=wrap;html=1;rounded=1;" vertex="1" parent="1">
          <mxGeometry x="140" y="190" width="120" height="60" as="geometry" />
        </mxCell>
        <mxCell id="Jtp0BAPYZOAmez7oG2RA-32" value="Comstp交易上行" style="text;strokeColor=none;align=center;fillColor=none;html=1;verticalAlign=middle;whiteSpace=wrap;rounded=0;" vertex="1" parent="1">
          <mxGeometry x="200" y="140" width="60" height="30" as="geometry" />
        </mxCell>
        <mxCell id="Jtp0BAPYZOAmez7oG2RA-33" value="核心系统" style="whiteSpace=wrap;html=1;rounded=1;" vertex="1" parent="1">
          <mxGeometry x="-70" y="332" width="100" height="30" as="geometry" />
        </mxCell>
        <mxCell id="Jtp0BAPYZOAmez7oG2RA-38" value="人民币" style="text;strokeColor=none;align=center;fillColor=none;html=1;verticalAlign=middle;whiteSpace=wrap;rounded=0;" vertex="1" parent="1">
          <mxGeometry x="150" y="290" width="50" height="30" as="geometry" />
        </mxCell>
        <mxCell id="Jtp0BAPYZOAmez7oG2RA-39" value="外币" style="text;strokeColor=none;align=center;fillColor=none;html=1;verticalAlign=middle;whiteSpace=wrap;rounded=0;" vertex="1" parent="1">
          <mxGeometry x="190" y="290" width="60" height="30" as="geometry" />
        </mxCell>
        <mxCell id="Jtp0BAPYZOAmez7oG2RA-40" value="核心接口" style="text;strokeColor=none;align=center;fillColor=none;html=1;verticalAlign=middle;whiteSpace=wrap;rounded=0;" vertex="1" parent="1">
          <mxGeometry x="-50" y="290" width="60" height="30" as="geometry" />
        </mxCell>
        <mxCell id="Jtp0BAPYZOAmez7oG2RA-45" value="SWITF报文" style="text;strokeColor=none;align=center;fillColor=none;html=1;verticalAlign=middle;whiteSpace=wrap;rounded=0;" vertex="1" parent="1">
          <mxGeometry x="281" y="290" width="82" height="30" as="geometry" />
        </mxCell>
        <mxCell id="Jtp0BAPYZOAmez7oG2RA-57" value="总账系统" style="whiteSpace=wrap;html=1;rounded=1;" vertex="1" parent="1">
          <mxGeometry x="40" y="332" width="100" height="30" as="geometry" />
        </mxCell>
        <mxCell id="Jtp0BAPYZOAmez7oG2RA-58" value="二代支付系统" style="whiteSpace=wrap;html=1;rounded=1;" vertex="1" parent="1">
          <mxGeometry x="150" y="332" width="100" height="30" as="geometry" />
        </mxCell>
        <mxCell id="Jtp0BAPYZOAmez7oG2RA-73" style="edgeStyle=orthogonalEdgeStyle;rounded=0;orthogonalLoop=1;jettySize=auto;html=1;exitX=0.75;exitY=0;exitDx=0;exitDy=0;entryX=1;entryY=0.5;entryDx=0;entryDy=0;" edge="1" parent="1" source="Jtp0BAPYZOAmez7oG2RA-59" target="Jtp0BAPYZOAmez7oG2RA-29">
          <mxGeometry relative="1" as="geometry">
            <mxPoint x="340" y="240" as="targetPoint" />
          </mxGeometry>
        </mxCell>
        <mxCell id="Jtp0BAPYZOAmez7oG2RA-59" value="国结系统" style="whiteSpace=wrap;html=1;rounded=1;" vertex="1" parent="1">
          <mxGeometry x="268" y="332" width="100" height="30" as="geometry" />
        </mxCell>
        <mxCell id="Jtp0BAPYZOAmez7oG2RA-62" value="总账接口" style="text;strokeColor=none;align=center;fillColor=none;html=1;verticalAlign=middle;whiteSpace=wrap;rounded=0;" vertex="1" parent="1">
          <mxGeometry x="60" y="290" width="60" height="30" as="geometry" />
        </mxCell>
        <mxCell id="Jtp0BAPYZOAmez7oG2RA-64" value="国结清算" style="whiteSpace=wrap;html=1;rounded=1;" vertex="1" parent="1">
          <mxGeometry x="380" y="332" width="100" height="30" as="geometry" />
        </mxCell>
        <mxCell id="Jtp0BAPYZOAmez7oG2RA-66" value="头寸接口" style="text;strokeColor=none;align=center;fillColor=none;html=1;verticalAlign=middle;whiteSpace=wrap;rounded=0;" vertex="1" parent="1">
          <mxGeometry x="389" y="290" width="82" height="30" as="geometry" />
        </mxCell>
        <mxCell id="Jtp0BAPYZOAmez7oG2RA-70" style="edgeStyle=orthogonalEdgeStyle;rounded=0;orthogonalLoop=1;jettySize=auto;html=1;exitX=0.5;exitY=0;exitDx=0;exitDy=0;entryX=0.5;entryY=1;entryDx=0;entryDy=0;" edge="1" parent="1" source="Jtp0BAPYZOAmez7oG2RA-67" target="Jtp0BAPYZOAmez7oG2RA-59">
          <mxGeometry relative="1" as="geometry" />
        </mxCell>
        <mxCell id="Jtp0BAPYZOAmez7oG2RA-67" value="代客资金系统（国结、柜面、网银）" style="whiteSpace=wrap;html=1;rounded=1;" vertex="1" parent="1">
          <mxGeometry x="267" y="410" width="102" height="40" as="geometry" />
        </mxCell>
        <mxCell id="Jtp0BAPYZOAmez7oG2RA-68" value="" style="endArrow=classic;startArrow=classic;html=1;rounded=0;entryX=0.683;entryY=1;entryDx=0;entryDy=0;entryPerimeter=0;dashed=1;dashPattern=12 12;fillColor=#fa6800;strokeColor=#C73500;" edge="1" parent="1" target="Jtp0BAPYZOAmez7oG2RA-23">
          <mxGeometry width="50" height="50" relative="1" as="geometry">
            <mxPoint x="221" y="190" as="sourcePoint" />
            <mxPoint x="271" y="140" as="targetPoint" />
          </mxGeometry>
        </mxCell>
        <mxCell id="Jtp0BAPYZOAmez7oG2RA-72" value="代客交易" style="text;strokeColor=none;align=center;fillColor=none;html=1;verticalAlign=middle;whiteSpace=wrap;rounded=0;" vertex="1" parent="1">
          <mxGeometry x="288" y="380" width="60" height="30" as="geometry" />
        </mxCell>
        <mxCell id="Jtp0BAPYZOAmez7oG2RA-75" value="代客交易、结售汇数据" style="text;strokeColor=none;align=center;fillColor=none;html=1;verticalAlign=middle;whiteSpace=wrap;rounded=0;" vertex="1" parent="1">
          <mxGeometry x="284" y="250" width="130" height="30" as="geometry" />
        </mxCell>
        <mxCell id="Jtp0BAPYZOAmez7oG2RA-80" value="结售汇数据" style="text;strokeColor=none;align=center;fillColor=none;html=1;verticalAlign=middle;whiteSpace=wrap;rounded=0;" vertex="1" parent="1">
          <mxGeometry x="510" y="250" width="80" height="30" as="geometry" />
        </mxCell>
        <mxCell id="Jtp0BAPYZOAmez7oG2RA-82" style="edgeStyle=orthogonalEdgeStyle;rounded=0;orthogonalLoop=1;jettySize=auto;html=1;exitX=0.5;exitY=0;exitDx=0;exitDy=0;entryX=1;entryY=0.5;entryDx=0;entryDy=0;" edge="1" parent="1" source="Jtp0BAPYZOAmez7oG2RA-81" target="Jtp0BAPYZOAmez7oG2RA-29">
          <mxGeometry relative="1" as="geometry" />
        </mxCell>
        <mxCell id="Jtp0BAPYZOAmez7oG2RA-81" value="大前置" style="whiteSpace=wrap;html=1;rounded=1;" vertex="1" parent="1">
          <mxGeometry x="500" y="332" width="100" height="30" as="geometry" />
        </mxCell>
      </root>
    </mxGraphModel>
  </diagram>
</mxfile>
